:SAMPLES-PER-SECOND 30
:FULLY-SPECIFIED
:DEGREES
58
root  34.80112571 36.50475149 -14.94784167 8.247880936 -3.481669188 3.635727167
lowerback  -7.700820446 -0.8628249168 -0.2025147229
upperback  -3.764729977 -0.7377830148 -2.956140041
thorax  0.3910999894 -0.2322682738 -2.99248004
lowerneck  -12.79699993 -4.719270229 -4.367519855
upperneck  17.3314991 -6.6667099 7.663680077
head  7.872469902 -2.561850071 2.562550068
lclavicle  0 -4.497500157e-015 -2.743230041e-014
lhumerus  -46.99639893 26.32640076 67.62960052
lradius  -0.02782320045 -6.507048965e-006 31.20000267
lwrist  4.824992743e-007 -3.790274832e-007 -25.2269001
lhand  -4.409120671e-031 -36.78689957 -10.82520008
lfingers  90 7.125020027 -90
lthumb  94.79470849 -25.66229792 100.9617272
rclavicle  0 -4.497500157e-015 -2.743230041e-014
rhumerus  -61.18590164 -24.50729752 -49.52900314
rradius  -5.16745672e-007 2.214343908e-008 81.26599884
rwrist  -7.499573258e-005 0.03438235447 -174.8679962
rhand  -1.765562525e-031 -0.004618879873 -7.909029961
rfingers  -90 -7.125020027 -90
rthumb  -86.17970089 -7.921839121 -64.14948011
rfemur  -12.2514019 16.35487747 13.34097576
rtibia  -1.502858162 -0.4434713125 21.50725746
rfoot  -0.2826380134 -20.92156029 -37.70425415
rtoes  4.118753288 19.58831892 -102.1222973
lfemur  -8.265945435 -17.58149338 -20.06358528
ltibia  2.336984873 -0.7194199562 15.11669254
lfoot  0.8512821198 -24.27067757 37.01131058
ltoes  -8.650106377 -18.10209181 -116.0873002
59
root  34.79931148 36.50439105 -14.94871575 8.265632629 -3.543585062 3.664760351
lowerback  -7.788859367 -0.8620110154 -0.1393595487
upperback  -3.709089994 -0.7374280095 -2.968820095
thorax  0.4959670007 -0.2351749986 -3.042779922
lowerneck  -12.61060047 -5.090209961 -4.599359989
upperneck  17.19300079 -7.148910522 7.736949921
head  7.836659908 -2.808749914 2.572170019
lclavicle  0 -4.497500157e-015 -2.743230041e-014
lhumerus  -46.93840027 26.44519997 67.57520294
lradius  -0.02825118974 -6.507048965e-006 31.11610031
lwrist  4.824992743e-007 -3.790274832e-007 -25.52409935
lhand  -4.410813606e-031 -36.81629944 -10.72749996
lfingers  90 7.125020027 -90
lthumb  94.7879339 -25.5653888 100.9842911
rclavicle  0 -4.497500157e-015 -2.743230041e-014
rhumerus  -61.30630112 -24.44360161 -48.95859528
rradius  -5.16745672e-007 2.214343908e-008 82.70629883
rwrist  -7.499573258e-005 0.03438235447 -175.0619965
rhand  -1.765563935e-031 0.07255460322 -7.86687994
rfingers  -90 -7.125020027 -90
rthumb  -86.1461214 -7.964387198 -64.07171273
rfemur  -12.29055309 16.3420372 13.30256462
rtibia  -1.520307183 -0.4993046522 21.52732086
rfoot  -0.2933696806 -21.00293732 -37.66566849
rtoes  4.135575285 19.58490756 -102.1724776
lfemur  -8.371236801 -17.71216393 -20.05934906
ltibia  2.292236805 -0.7964885831 15.22290516
lfoot  0.8704302311 -24.15966415 37.1174202
ltoes  -8.655438447 -18.09960938 -116.1044622
60
root  34.79959683 36.50532219 -14.94958082 8.29805851 -3.598488092 3.683565617
lowerback  -7.903319359 -0.8610549569 -0.09438748658
upperback  -3.621589899 -0.7403349876 -2.990119934
thorax  0.648325026 -0.2381550074 -3.09262991
lowerneck  -12.47410011 -5.577489853 -5.045760155
upperneck  17.14310074 -7.790540218 8.027259827
head  7.869860172 -3.118840218 2.670259953
lclavicle  0 -4.497500157e-015 -2.743230041e-014
lhumerus  -46.80609894 26.42210007 67.59369659
lradius  -0.02867684141 -6.507048965e-006 31.06959915
lwrist  4.824992743e-007 -3.790274832e-007 -25.57710075
lhand  -4.411073025e-031 -36.82080078 -10.74180031
lfingers  90 7.125020027 -90
lthumb  94.79307171 -25.57925942 100.9904188
rclavicle  0 -4.497500157e-015 -2.743230041e-014
rhumerus  -61.43600464 -24.55770111 -48.3456955
rradius  -5.16745672e-007 2.214343908e-008 84.2181015
rwrist  -7.499573258e-005 0.03438235447 -175.1390076
rhand  -1.765613298e-031 0.4345430136 -7.874979973
rfingers  -90 -7.125020027 -90
rthumb  -86.07890211 -7.97887501 -63.71993
rfemur  -12.34754372 16.31274414 13.26924229
rtibia  -1.532380342 -0.5346323848 21.55053329
rfoot  -0.2949282527 -21.04739952 -37.6024704
rtoes  4.117191468 19.5886349 -102.1176388
lfemur  -8.366674423 -17.5315609 -20.09486961
ltibia  2.334157467 -0.7495032549 15.16473579
lfoot  0.8853448629 -24.2373848 37.05797195
ltoes  -8.627314467 -18.11268135 -116.0139669
61
root  34.80020057 36.50535523 -14.95058255 8.300099373 -3.679583311 3.699881554
lowerback  -7.946880341 -0.8792359829 -0.07062312961
upperback  -3.600919962 -0.7659959793 -2.997050047
thorax  0.69184798 -0.251365006 -3.116139889
lowerneck  -12.30720043 -5.965819836 -5.463190079
upperneck  17.11779976 -8.30753994 8.354169846
head  7.901919842 -3.362659931 2.790450096
lclavicle  0 -4.497500157e-015 -2.743230041e-014
lhumerus  -46.80590057 26.47710037 67.53279877
lradius  -0.02909985185 -6.507048965e-006 31.05080032
lwrist  4.824992743e-007 -3.790274832e-007 -25.60619926
lhand  -4.411182526e-031 -36.8227005 -10.74269962
lfingers  90 7.125020027 -90
lthumb  94.79417546 -25.58008613 100.9925763
rclavicle  0 -4.497500157e-015 -2.743230041e-014
rhumerus  -61.51789856 -24.44020081 -47.81219864
rradius  -5.16745672e-007 2.214343908e-008 85.63749695
rwrist  -7.499573258e-005 0.03438235447 -175.4029999
rhand  -1.765616039e-031 0.4461149871 -8.024479866
rfingers  -90 -7.125020027 -90
rthumb  -86.14343456 -7.845599587 -63.7178454
rfemur  -12.38047409 16.3148098 13.24302101
rtibia  -1.542096496 -0.5559996367 21.57833481
rfoot  -0.2963650823 -21.07887268 -37.54459
rtoes  4.091099114 19.59389524 -102.0398227
lfemur  -8.34355545 -17.47975731 -20.13990402
ltibia  2.355146408 -0.7622201443 15.13681793
lfoot  0.8889695406 -24.20960045 37.07050705
ltoes  -8.600494586 -18.12509759 -115.9277265
62
root  34.8007082 36.50625935 -14.95109919 8.323059082 -3.69289279 3.702644825
lowerback  -7.958409786 -0.9382410645 -0.1276507527
upperback  -3.586810112 -0.8406879902 -2.987790108
thorax  0.7099440098 -0.2881520092 -3.08081007
lowerneck  -12.08419991 -6.329619884 -5.665430069
upperneck  17.03019905 -8.791469574 8.441889763
head  7.8832798 -3.605010033 2.800359964
lclavicle  0 -4.497500157e-015 -2.743230041e-014
lhumerus  -46.82960129 26.49090004 67.521698
lradius  -0.02951991931 -6.507048965e-006 31.09149742
lwrist  4.824992743e-007 -3.790274832e-007 -25.34359932
lhand  -0 -36.86009979 -10.71850014
lfingers  90 7.125020027 -90
lthumb  94.80658361 -25.55498506 101.0303104
rclavicle  0 -4.497500157e-015 -2.743230041e-014
rhumerus  -61.71569824 -24.40169907 -47.18470001
rradius  -5.16745672e-007 2.214343908e-008 87.09010315
rwrist  -7.499573258e-005 0.03438235447 -176.3300018
rhand  -1.765649418e-031 0.5684530139 -8.159930229
rfingers  -90 -7.125020027 -90
rthumb  -86.18038276 -7.731828717 -63.60709143
rfemur  -12.41624451 16.30930519 13.22313118
rtibia  -1.543155789 -0.5715512037 21.58809471
rfoot  -0.311788857 -21.10324669 -37.55482101
rtoes  4.098838999 19.59233851 -102.0629035
lfemur  -8.388697624 -17.44282913 -20.13034821
ltibia  2.339636326 -0.7468121648 15.16070938
lfoot  0.8891612887 -24.25530815 37.04870987
ltoes  -8.55152249 -18.14764464 -115.7704016
